<svg width="1280" height="896" viewBox="0 0 1280 896" fill="none" xmlns="http://www.w3.org/2000/svg">
<path d="M207 113C121.015 61.4562 -23.5 0 -23.5 0V477C-23.5 477 9.08595 454.759 32.5 455.5C80.4839 457.018 75.7647 516.673 104 555.5C152.486 622.174 165.027 674.405 230.5 724.5C342.956 810.543 451.018 749.142 588 785C714.115 818.013 772.635 895.497 903 895.5C995.399 895.503 1040.66 843.188 1133 840C1219.31 837.021 1351.5 874 1351.5 874V583.5C1351.5 583.5 1251.61 566.772 1196.5 535.5C1138.33 502.493 1130.22 449.621 1070.5 419.5C987.611 377.691 914.71 445.983 833.5 401C800.448 382.693 789.858 360.813 758 340.5C648.861 270.91 550.164 331.939 432.5 278C333.306 232.528 300.592 169.104 207 113Z" fill="url(#paint0_linear_2_25)"/>
<defs>
<linearGradient id="paint0_linear_2_25" x1="91.5" y1="256.5" x2="1325" y2="764" gradientUnits="userSpaceOnUse">
<stop stop-color="#3563E9"/>
<stop offset="1" stop-color="#254DBF"/>
</linearGradient>
</defs>
</svg>
